<svg width="74" height="74" viewBox="0 0 74 74" fill="none" xmlns="http://www.w3.org/2000/svg">
<path d="M27.0789 51.0129C26.7603 50.6226 26.774 50.1488 26.818 49.7216C26.8472 49.3705 26.9067 49.0661 26.9359 48.715C27.0246 48.0596 27.1888 47.4213 27.3228 46.7363C27.6663 45.3836 28.0401 44.0776 28.4592 42.742C28.9087 41.4531 29.4034 40.1348 29.9285 38.863C30.4387 37.6674 30.9489 36.4718 31.4895 35.3228C32.6004 32.8727 33.7114 30.4225 35.1099 28.1172C36.5084 25.8118 38.0736 23.6636 39.6085 21.4687C40.4813 20.2362 41.3994 18.9742 42.2419 17.6951C42.7235 17.0494 43.1296 16.3865 43.6112 15.7408C44.0929 15.0951 44.605 14.496 45.223 13.9608C45.7957 13.455 46.6269 13.4451 47.2331 13.9802C47.8089 14.4687 47.9173 15.3279 47.5566 15.9613C46.9552 17.017 46.1723 17.9917 45.465 18.9836C44.6975 20.081 43.9754 21.149 43.2079 22.2464C41.7332 24.3358 40.1828 26.4079 38.7688 28.5905C38.152 29.5235 37.5655 30.5031 37.0244 31.4532C37.0696 31.4237 37.0845 31.3476 37.0845 31.3476C36.9041 31.6643 36.7088 32.0572 36.5284 32.3739C35.5818 34.1857 34.7108 36.0147 33.8398 37.8438C32.9539 39.7489 32.1133 41.6246 31.3786 43.5641C30.8988 44.8063 30.4642 46.0191 30.06 47.2785C29.8653 47.8702 29.6706 48.4619 29.5212 49.0241C29.4164 49.3579 29.3265 49.6157 29.2217 49.9496C29.1616 50.0552 29.1319 50.2074 29.0717 50.313C28.9818 50.5707 28.9068 50.7524 28.711 50.9463C28.6657 50.9758 28.6508 51.0519 28.6056 51.0814C28.5603 51.1109 28.5151 51.1403 28.5151 51.1403C27.9876 51.6166 27.3825 51.4793 27.0789 51.0129Z" fill="#F4DD6A" stroke="#F4DD6A"/>
<path d="M16.3659 46.6314C16.2894 46.6741 16.1806 46.6948 16.0939 46.6831C15.9748 46.6494 15.8778 46.5834 15.7808 46.5173C15.6514 46.4292 15.5661 46.2763 15.5132 46.1455C15.4603 46.0147 15.3853 45.9162 15.3324 45.7854C15.2163 45.4693 15.1002 45.1531 15.0384 44.8267C14.9664 44.4458 14.8723 44.0974 14.8327 43.7385C14.7607 43.3577 14.721 42.9989 14.7033 42.6077C14.5446 41.1723 14.5271 39.7383 14.5095 38.3043C14.5125 36.9791 14.5376 35.6216 14.6494 34.2756C14.7406 32.8209 14.8641 31.3883 15.0097 29.9232C15.3215 27.1018 15.9039 24.3699 16.6817 21.629C16.8508 21.0331 17.0199 20.4372 17.211 19.809C17.3007 19.5383 17.3904 19.2675 17.4801 18.9968C17.6036 18.6069 17.7815 18.2066 18.0564 17.8725C18.1888 17.6782 18.3858 17.5279 18.593 17.4321C18.8547 17.3259 19.1914 17.3182 19.4722 17.462C19.7206 17.5838 19.9353 17.8248 20.0411 18.0865C20.1249 18.3805 20.1219 18.6629 20.0102 18.966C19.9881 18.9984 19.9661 19.0308 19.944 19.0632C19.5647 20.0373 19.25 21.0554 18.9354 22.0735C18.6207 23.0917 18.3384 24.1319 18.0561 25.172C17.8399 26.1151 17.5914 27.0361 17.4076 28.0011C17.212 29.0529 17.0488 30.1268 16.8856 31.2007C16.8488 31.6022 16.7797 31.9818 16.765 32.351C16.5988 33.7072 16.487 35.0531 16.3752 36.399C16.2737 37.7993 16.1722 39.1996 16.1574 40.6116C16.1515 41.1764 16.1235 41.7736 16.15 42.3604C16.1661 42.8928 16.2043 43.3929 16.2425 43.8929C16.2807 44.3929 16.3409 44.8606 16.4012 45.3282C16.4423 45.5458 16.4615 45.7958 16.535 46.0355C16.5761 46.2531 16.6819 46.5148 16.5496 46.7091C16.4423 46.5886 16.4203 46.621 16.3659 46.6314Z" fill="#F4DD6A" stroke="#F4DD6A"/>
<path d="M37.8612 60.3691C37.7513 60.3679 37.6278 60.33 37.5525 60.2743C37.4637 60.182 37.4231 60.0718 37.3825 59.9617C37.3284 59.8148 37.3706 59.6324 37.4265 59.4867C37.4823 59.3411 37.4899 59.2132 37.5457 59.0675C37.692 58.7216 37.8384 58.3758 38.0464 58.0489C38.2892 57.6675 38.4837 57.3039 38.7399 56.9592C38.9827 56.5778 39.2389 56.2331 39.5434 55.8707C40.5684 54.492 41.7305 53.1879 42.8925 51.8838C43.9852 50.6887 45.1261 49.4758 46.3423 48.3186C47.6279 47.0524 48.9269 45.823 50.2742 44.5757C52.8994 42.1902 55.7157 40.0262 58.7308 37.9557C59.3863 37.5056 60.0417 37.0555 60.7454 36.5876C61.0558 36.3898 61.3662 36.1919 61.6766 35.9941C62.1181 35.7063 62.6213 35.4374 63.1651 35.2787C63.4544 35.1721 63.7707 35.1389 64.0523 35.1602C64.3957 35.2004 64.7315 35.3686 64.888 35.6445C65.0309 35.8838 65.0427 36.213 64.9311 36.5044C64.7713 36.8135 64.5361 37.067 64.1775 37.2826C64.1293 37.3003 64.0811 37.3181 64.0329 37.3359C62.8607 38.0182 61.7156 38.7739 60.5704 39.5296C59.4253 40.2853 58.2936 41.0777 57.162 41.8702C56.175 42.6093 55.1745 43.3117 54.201 44.0875C53.1447 44.9356 52.1019 45.8204 51.0591 46.7052C50.6929 47.0487 50.3131 47.3555 49.9951 47.6812C48.7172 48.8195 47.501 49.9767 46.2848 51.1339C45.034 52.3456 43.7831 53.5573 42.6076 54.8247C42.1373 55.3316 41.6188 55.8563 41.1621 56.4C40.7401 56.8892 40.3663 57.3606 39.9925 57.832C39.6187 58.3034 39.293 58.7571 38.9674 59.2107C38.8287 59.4286 38.6419 59.6643 38.5167 59.919C38.378 60.1369 38.2663 60.4283 37.9771 60.5349C37.9712 60.3703 37.923 60.388 37.8612 60.3691Z" fill="#F4DD6A" stroke="#F4DD6A"/>
</svg>
