<svg width="163" height="163" viewBox="0 0 163 163" fill="none" xmlns="http://www.w3.org/2000/svg">
<path d="M107.541 36.1834C107.818 35.8181 108.146 35.6292 108.53 35.4718C108.914 35.3144 109.292 35.3019 109.727 35.3209C110.161 35.3399 110.501 35.5289 110.872 35.6613C111.155 35.8188 111.438 35.9764 111.664 36.1024C112.231 36.4175 112.709 36.7578 113.275 37.0729C114.319 37.7282 115.275 38.4087 116.287 39.1207C117.357 39.8643 118.363 40.7212 119.4 41.5214C119.847 41.9184 120.293 42.3153 120.796 42.7438C121.243 43.1407 121.714 43.6259 122.129 44.0795C123.845 45.9255 125.354 47.8787 126.83 49.8884C128.307 51.8982 129.721 54.0213 130.694 56.2703C131.014 56.894 131.246 57.5429 131.39 58.217C131.44 58.3934 131.459 58.6264 131.509 58.8028C131.609 59.1556 131.621 59.5335 131.577 59.88C131.564 60.1698 131.494 60.428 131.368 60.6548C131.242 60.8815 131.059 61.0767 130.851 61.1838C130.555 61.316 130.152 61.2403 129.932 60.9694C129.876 60.9379 129.85 60.8497 129.825 60.7615C129.8 60.6733 129.744 60.6418 129.719 60.5536C129.694 60.4654 129.669 60.3772 129.587 60.2575C129.562 60.1693 129.48 60.0496 129.487 59.9048C129.405 59.7851 129.38 59.6968 129.33 59.5205L129.355 59.6086C129.091 59.0164 128.827 58.4243 128.476 57.8573C128.124 57.2903 127.747 56.6351 127.395 56.0681C126.987 55.4695 126.522 54.8395 126.113 54.241C125.29 53.1888 124.467 52.1367 123.555 51.1097C122.587 50.0513 121.676 49.0243 120.708 47.9658C120.764 47.9973 120.789 48.0855 120.846 48.117C120.318 47.6004 119.821 47.027 119.262 46.567C118.734 46.0504 118.174 45.5905 117.558 45.099C116.155 44.0215 114.665 42.9692 113.231 41.9484C111.765 40.9843 110.268 40.0769 108.803 39.1128C108.746 39.0813 108.689 39.0498 108.633 39.0183C108.633 39.0183 108.633 39.0183 108.576 38.9868C107.714 38.8039 107.111 38.0226 107.061 37.1785C107.049 36.8006 107.15 36.4857 107.34 36.1456C107.478 36.2968 107.509 36.2401 107.541 36.1834Z" fill="#F4DD6A"/>
<path d="M115.683 22.8965C116.212 22.7454 116.703 22.7959 117.156 23.048C117.867 23.3694 118.458 23.7726 119.106 24.2074C119.697 24.6107 120.232 24.9825 120.823 25.3858C121.949 26.1608 123.1 27.0241 124.194 27.8558C125.402 28.7506 126.521 29.6705 127.697 30.6219C128.76 31.5103 129.879 32.4303 130.847 33.4888C131.432 34.0369 131.929 34.6103 132.482 35.2151C132.978 35.7885 133.418 36.3303 133.827 36.9288C134.732 38.1006 135.485 39.411 136.182 40.6899C136.848 42.0255 137.369 43.3547 137.77 44.7659C137.97 45.4714 138.083 46.2021 138.139 46.9014C138.207 47.3108 138.131 47.7139 138.055 48.1171C138.017 48.3186 137.922 48.4887 137.803 48.5706C137.796 48.7155 137.821 48.8037 137.758 48.917C137.537 49.3138 136.983 49.3767 136.619 49.0995C136.31 48.8537 136.361 48.3624 136.349 47.9844C136.274 47.7199 136.256 47.4868 136.212 47.1655C136.062 46.6364 135.911 46.1072 135.704 45.5465C135.365 44.6897 134.995 43.8897 134.568 43.0581C134.028 42.1635 133.487 41.2688 132.891 40.3427C132.589 39.9521 132.287 39.5615 132.042 39.2024C131.684 38.7803 131.326 38.3581 130.911 37.9045C130.188 37.2051 129.465 36.5058 128.742 35.8064C128.044 35.1952 127.289 34.5525 126.56 33.9981C124.736 32.6118 122.855 31.1941 120.969 29.9213C120.069 29.2722 119.082 28.6484 118.151 28.056C117.163 27.4322 116.232 26.8399 115.276 26.1593C114.49 25.5733 114.246 24.5465 114.719 23.6962C114.719 23.6962 114.719 23.6962 114.751 23.6395C114.82 23.3813 115.211 23.079 115.683 22.8965Z" fill="#F4DD6A"/>
<path d="M32.0716 105.532C31.0107 105.993 31.4773 107.437 31.7266 108.234C31.9758 109.03 32.241 109.9 32.5641 110.68C32.9192 111.607 33.2583 112.461 33.6713 113.299C34.0843 114.137 34.4814 114.901 34.9683 115.723C34.9842 115.797 35.0741 115.855 35.09 115.929C35.09 115.929 35.09 115.929 35.0741 115.855C35.8523 117.31 36.7624 118.658 37.7464 119.991C37.7464 119.991 37.7464 119.991 37.7304 119.917C37.942 120.181 38.1536 120.444 38.2913 120.723C40.1216 123.11 42.2157 125.284 44.5577 127.174C45.7736 128.147 46.9735 129.047 48.3213 129.915C49.6691 130.783 51.0009 131.577 52.4487 132.192C53.0458 132.449 53.611 132.559 54.2603 132.342C54.8357 132.14 55.3632 131.717 55.6372 131.194C56.243 130.059 55.7025 128.631 54.5663 128.026C53.4301 127.421 52.2939 126.817 51.1577 126.212C49.3026 125.145 47.5636 123.898 45.8825 122.561C44.7564 121.645 43.6883 120.64 42.6203 119.634C41.3986 118.275 40.2349 116.827 39.0712 115.378C37.722 113.429 36.3728 111.48 35.2294 109.409C34.8642 108.792 34.5729 108.16 34.2817 107.527C34.144 107.248 33.9903 106.895 33.8527 106.616C33.715 106.336 33.5773 106.057 33.4556 105.851C33.4397 105.778 33.3498 105.72 33.3498 105.72C33.0643 105.472 32.8266 105.446 32.4571 105.526C32.2194 105.5 32.1455 105.516 32.0716 105.532Z" fill="#F4DD6A"/>
<path d="M25.3089 118.042C24.993 118.409 25.0162 118.942 25.0998 119.388C25.1694 119.759 25.2252 120.056 25.2948 120.427C25.4342 121.169 25.6339 121.823 25.8475 122.551C26.0612 123.28 26.4095 123.906 26.7718 124.606C27.1341 125.307 27.5567 125.919 27.9794 126.531C28.7365 127.695 29.7026 128.743 30.5944 129.806C31.6488 130.914 32.6288 132.036 33.7575 133.131C35.267 134.615 36.9856 135.983 38.7506 137.188C39.6331 137.791 40.59 138.38 41.5329 138.894C42.4897 139.483 43.5208 140.058 44.5241 140.484C45.0258 140.698 45.5878 140.823 46.1684 140.637C46.749 140.451 47.2135 140.056 47.4411 139.629C48.0171 138.599 47.6038 137.217 46.5866 136.716C45.3185 136.109 44.0505 135.502 42.7824 134.895C41.5887 134.273 40.4693 133.638 39.336 132.929C38.8065 132.567 38.277 132.206 37.7335 131.77C37.1901 131.334 36.6467 130.898 36.1032 130.462C34.3568 128.946 32.6104 127.429 31.059 125.723C30.3716 124.93 29.6842 124.136 28.9828 123.269C28.444 122.448 27.9052 121.627 27.4268 120.718C27.0646 120.018 26.7023 119.317 26.4143 118.603C26.4747 118.515 26.4608 118.441 26.4329 118.292C26.405 118.144 26.3168 118.083 26.2285 118.023C26.1403 117.963 26.052 117.903 25.9638 117.842C25.8755 117.782 25.7269 117.81 25.6526 117.824C25.49 117.778 25.4296 117.866 25.3089 118.042Z" fill="#F4DD6A"/>
</svg>
