<svg width="167" height="70" viewBox="0 0 167 70" fill="none" xmlns="http://www.w3.org/2000/svg">
<path d="M91.7378 13.2725C65.9901 9.62012 38.5851 16.8026 21.5761 24.9053C7.20547 31.763 -3.85127 43.4822 16.4163 52.349C41.6073 63.4577 83.858 61.9976 110.974 58.6868C125.533 56.8898 139.062 53.7182 147.993 47.7521C156.328 42.1741 158.366 33.819 152.681 26.6176C141.312 12.2149 111.452 6.81368 85.3194 8.32343C59.7595 9.73177 35.2313 16.2638 17.8768 25.2059C6.11253 31.2488 -5.64883 41.041 6.10588 50.2816C12.7949 55.395 25.3233 58.0606 35.947 59.7188C50.7576 62.1221 65.9779 62.8258 80.9812 62.648C120.344 61.9817 166.634 51.8833 164.701 28.5242C164.527 27.0693 160.308 26.7543 160.482 28.2093C161.924 46.7734 130.67 56.264 99.3245 59.4033C83.0892 60.9309 66.1278 60.8183 49.2734 59.2717C36.0755 57.9981 20.1292 55.6542 10.6596 49.9006C-6.39626 39.6875 18.5815 27.133 31.9799 21.9329C52.3747 13.9388 80.7977 8.27427 108.611 10.7831C124.059 12.2247 138.666 17.3525 146.611 24.5784C156.419 33.3852 151.721 43.2721 139.383 49.4165C128.224 54.9278 110.54 56.9241 95.1805 58.0846C77.8308 59.3848 58.9006 59.1252 41.2774 56.5119C29.2473 54.7487 13.6893 50.9919 9.96271 44.0809C6.72377 38.2156 14.2049 32.7181 20.7138 28.8782C36.3808 19.8102 65.8296 11.771 91.8586 15.4444C94.0872 15.8991 94.2478 13.7482 91.7378 13.2725Z" fill="#F4DD6A"/>
</svg>
