<svg width="212" height="54" viewBox="0 0 212 54" fill="none" xmlns="http://www.w3.org/2000/svg">
<path d="M11.4112 43.9692C23.0709 52.7622 39.9655 55.1175 53.0528 53.5473C86.3661 49.3078 93.2667 16.648 55.1944 3.6155C38.2999 -2.19418 17.1221 -1.40909 6.65221 8.95412C-3.10382 18.3752 -2.62792 33.449 11.4112 43.9692Z" fill="#F9F6F2"/>
<path d="M51.3622 28.3636C51.3622 23.3672 48.2599 20.5185 44.2106 20.5185C40.1388 20.5185 37.0589 23.3672 37.0589 28.3636C37.0589 33.3377 40.1388 36.2088 44.2106 36.2088C48.2599 36.2088 51.3622 33.3601 51.3622 28.3636ZM48.0884 28.3636C48.0884 31.6001 46.5522 33.3526 44.2106 33.3526C41.8615 33.3526 40.3327 31.6001 40.3327 28.3636C40.3327 25.1271 41.8615 23.3746 44.2106 23.3746C46.5522 23.3746 48.0884 25.1271 48.0884 28.3636ZM56.6614 29.3778C56.6688 27.9013 57.5488 27.0362 58.8315 27.0362C60.1067 27.0362 60.8748 27.8714 60.8673 29.2734V36H64.0442V28.7067C64.0442 26.0369 62.4781 24.3963 60.0918 24.3963C58.3915 24.3963 57.161 25.2315 56.6464 26.5664H56.5122V24.5455H53.4845V36H56.6614V29.3778ZM71.5582 36.2237C74.392 36.2237 76.3011 34.8441 76.7485 32.7188L73.8103 32.5249C73.4896 33.3974 72.6693 33.8523 71.6104 33.8523C70.0219 33.8523 69.0152 32.8008 69.0152 31.093V31.0856H76.8156V30.2131C76.8156 26.3203 74.4591 24.3963 71.4314 24.3963C68.0606 24.3963 65.8756 26.7901 65.8756 30.3249C65.8756 33.9567 68.0308 36.2237 71.5582 36.2237ZM69.0152 29.1168C69.0823 27.8118 70.0741 26.7678 71.4836 26.7678C72.8632 26.7678 73.8177 27.7521 73.8252 29.1168H69.0152Z" fill="#333333"/>
<path d="M88.8028 36C93.4563 36 96.2751 33.1214 96.2751 28.3487C96.2751 23.5909 93.4563 20.7273 88.8476 20.7273H83.3888V36H88.8028ZM86.6178 33.2333V23.494H88.6761C91.5397 23.494 93.0536 24.9556 93.0536 28.3487C93.0536 31.7567 91.5397 33.2333 88.6686 33.2333H86.6178ZM101.664 36.2163C103.357 36.2163 104.453 35.478 105.012 34.4116H105.102V36H108.114V28.2741C108.114 25.5447 105.803 24.3963 103.252 24.3963C100.508 24.3963 98.7032 25.7088 98.2632 27.7969L101.201 28.0355C101.418 27.2749 102.096 26.7156 103.237 26.7156C104.319 26.7156 104.938 27.2599 104.938 28.1996V28.2443C104.938 28.9826 104.155 29.0795 102.163 29.2734C99.8964 29.4822 97.8605 30.2429 97.8605 32.8008C97.8605 35.0678 99.4788 36.2163 101.664 36.2163ZM102.574 34.0238C101.597 34.0238 100.896 33.5689 100.896 32.6964C100.896 31.8015 101.634 31.3615 102.753 31.2049C103.446 31.108 104.58 30.9439 104.96 30.6903V31.9059C104.96 33.1065 103.968 34.0238 102.574 34.0238ZM110.369 36H113.546V24.5455H110.369V36ZM111.965 23.0689C112.912 23.0689 113.688 22.3455 113.688 21.4581C113.688 20.5781 112.912 19.8548 111.965 19.8548C111.025 19.8548 110.25 20.5781 110.25 21.4581C110.25 22.3455 111.025 23.0689 111.965 23.0689ZM119.058 20.7273H115.881V36H119.058V20.7273ZM123.354 40.2955C125.718 40.2955 126.971 39.0874 127.619 37.2379L132.071 24.5604L128.708 24.5455L126.314 32.9574H126.195L123.824 24.5455H120.483L124.592 36.3281L124.405 36.8129C123.988 37.8867 123.19 37.9389 122.071 37.5959L121.355 39.9673C121.81 40.1612 122.548 40.2955 123.354 40.2955ZM150.972 20.7273H147.758V30.3324H147.623L141.031 20.7273H138.197V36H141.426V26.3874H141.538L148.183 36H150.972V20.7273ZM160.715 31.1229C160.723 32.6591 159.671 33.4645 158.53 33.4645C157.33 33.4645 156.554 32.6218 156.547 31.272V24.5455H153.37V31.8388C153.377 34.516 154.943 36.1491 157.248 36.1491C158.97 36.1491 160.208 35.2617 160.723 33.9194H160.842V36H163.892V24.5455H160.715V31.1229ZM171.384 40.5341C174.658 40.5341 176.984 39.0426 176.984 36.1119V24.5455H173.83V26.4695H173.711C173.285 25.5373 172.353 24.3963 170.437 24.3963C167.924 24.3963 165.798 26.3501 165.798 30.2504C165.798 34.0611 167.864 35.8359 170.444 35.8359C172.271 35.8359 173.293 34.9187 173.711 33.9716H173.845V36.0671C173.845 37.6406 172.838 38.2521 171.458 38.2521C170.056 38.2521 169.348 37.6406 169.087 36.9471L166.149 37.3423C166.529 39.147 168.296 40.5341 171.384 40.5341ZM171.451 33.4496C169.892 33.4496 169.042 32.2116 169.042 30.2354C169.042 28.2891 169.877 26.9244 171.451 26.9244C172.995 26.9244 173.86 28.2294 173.86 30.2354C173.86 32.2564 172.98 33.4496 171.451 33.4496ZM184.463 40.5341C187.737 40.5341 190.063 39.0426 190.063 36.1119V24.5455H186.909V26.4695H186.79C186.365 25.5373 185.432 24.3963 183.516 24.3963C181.003 24.3963 178.877 26.3501 178.877 30.2504C178.877 34.0611 180.943 35.8359 183.523 35.8359C185.35 35.8359 186.372 34.9187 186.79 33.9716H186.924V36.0671C186.924 37.6406 185.917 38.2521 184.537 38.2521C183.136 38.2521 182.427 37.6406 182.166 36.9471L179.228 37.3423C179.608 39.147 181.376 40.5341 184.463 40.5341ZM184.53 33.4496C182.971 33.4496 182.121 32.2116 182.121 30.2354C182.121 28.2891 182.957 26.9244 184.53 26.9244C186.074 26.9244 186.939 28.2294 186.939 30.2354C186.939 32.2564 186.059 33.4496 184.53 33.4496ZM197.602 36.2237C200.435 36.2237 202.345 34.8441 202.792 32.7188L199.854 32.5249C199.533 33.3974 198.713 33.8523 197.654 33.8523C196.065 33.8523 195.059 32.8008 195.059 31.093V31.0856H202.859V30.2131C202.859 26.3203 200.503 24.3963 197.475 24.3963C194.104 24.3963 191.919 26.7901 191.919 30.3249C191.919 33.9567 194.074 36.2237 197.602 36.2237ZM195.059 29.1168C195.126 27.8118 196.118 26.7678 197.527 26.7678C198.907 26.7678 199.861 27.7521 199.869 29.1168H195.059ZM210.815 24.5455H208.66V21.8011H205.483V24.5455H203.917V26.9318H205.483V32.8977C205.468 35.1424 206.997 36.2536 209.301 36.1566C210.121 36.1268 210.703 35.9627 211.024 35.8583L210.524 33.4943C210.367 33.5241 210.032 33.5987 209.734 33.5987C209.1 33.5987 208.66 33.3601 208.66 32.4801V26.9318H210.815V24.5455Z" fill="#F9F6F2"/>
</svg>
