<svg width="212" height="54" viewBox="0 0 212 54" fill="none" xmlns="http://www.w3.org/2000/svg">
<path d="M11.4112 43.9692C23.0709 52.7622 39.9655 55.1175 53.0528 53.5473C86.3661 49.3078 93.2667 16.648 55.1944 3.6155C38.2999 -2.19418 17.1221 -1.40909 6.65221 8.95412C-3.10382 18.3752 -2.62792 33.449 11.4112 43.9692Z" fill="#F4DD6A"/>
<path d="M51.3622 27.3636C51.3622 29.0291 51.0465 30.446 50.4151 31.6143C49.7887 32.7827 48.9361 33.6751 47.8572 34.2915C46.7784 34.9031 45.5629 35.2088 44.2106 35.2088C42.8533 35.2088 41.6353 34.9006 40.5565 34.2841C39.4776 33.6676 38.625 32.7752 37.9986 31.6069C37.3722 30.4336 37.0589 29.0192 37.0589 27.3636C37.0589 25.6982 37.3722 24.2812 37.9986 23.1129C38.625 21.9446 39.4776 21.0547 40.5565 20.4432C41.6353 19.8267 42.8533 19.5185 44.2106 19.5185C45.5629 19.5185 46.7784 19.8267 47.8572 20.4432C48.9361 21.0547 49.7887 21.9446 50.4151 23.1129C51.0465 24.2812 51.3622 25.6982 51.3622 27.3636ZM48.0884 27.3636C48.0884 25.7429 47.7354 24.5075 47.0295 23.6573C46.3235 22.8022 45.3839 22.3746 44.2106 22.3746C43.0373 22.3746 42.0977 22.8022 41.3917 23.6573C40.6857 24.5075 40.3327 25.7429 40.3327 27.3636C40.3327 28.9794 40.6857 30.2148 41.3917 31.07C42.0977 31.9251 43.0373 32.3526 44.2106 32.3526C45.3839 32.3526 46.3235 31.9251 47.0295 31.07C47.7354 30.2148 48.0884 28.9794 48.0884 27.3636ZM56.6614 28.3778V35H53.4845V23.5455H56.5122V25.5664H56.6464C56.905 24.9002 57.33 24.3732 57.9217 23.9854C58.5183 23.5927 59.2416 23.3963 60.0918 23.3963C61.2849 23.3963 62.242 23.7816 62.9629 24.5522C63.6837 25.3178 64.0442 26.3693 64.0442 27.7067V35H60.8673V28.2734C60.8723 27.5724 60.6933 27.0256 60.3304 26.6328C59.9675 26.2351 59.4678 26.0362 58.8315 26.0362C58.1901 26.0362 57.6681 26.2425 57.2654 26.6552C56.8677 27.0629 56.6663 27.6371 56.6614 28.3778ZM71.5582 35.2237C70.3849 35.2237 69.3731 34.9851 68.523 34.5078C67.6729 34.0256 67.0191 33.3445 66.5617 32.4645C66.1043 31.5795 65.8756 30.533 65.8756 29.3249C65.8756 28.1467 66.1043 27.1126 66.5617 26.2227C67.0191 25.3327 67.6629 24.6392 68.4932 24.142C69.3284 23.6449 70.3078 23.3963 71.4314 23.3963C72.4406 23.3963 73.3504 23.6101 74.1608 24.0376C74.9761 24.4652 75.6224 25.1115 76.0997 25.9766C76.577 26.8366 76.8156 27.9155 76.8156 29.2131V30.0856H69.0152V30.093C69.0152 30.9482 69.2489 31.6218 69.7162 32.114C70.1835 32.6062 70.8149 32.8523 71.6104 32.8523C72.1423 32.8523 72.6022 32.7404 72.99 32.5167C73.3778 32.293 73.6512 31.9624 73.8103 31.5249L76.7485 31.7188C76.5248 32.7827 75.958 33.6328 75.0482 34.2692C74.1384 34.9055 72.9751 35.2237 71.5582 35.2237ZM69.0152 28.1168H73.8252C73.8202 27.4357 73.6015 26.8739 73.169 26.4315C72.7364 25.989 72.1746 25.7678 71.4836 25.7678C70.7776 25.7678 70.1984 25.9964 69.746 26.4538C69.2936 26.9112 69.05 27.4656 69.0152 28.1168ZM88.8028 35H83.3888V19.7273H88.8476C90.3838 19.7273 91.7063 20.033 92.8149 20.6445C93.9286 21.2511 94.7837 22.1236 95.3803 23.2621C95.9769 24.4006 96.2751 25.7628 96.2751 27.3487C96.2751 28.9396 95.9744 30.3068 95.3728 31.4503C94.7762 32.5937 93.9186 33.4712 92.8 34.0827C91.6864 34.6942 90.354 35 88.8028 35ZM86.6178 32.2333H88.6686C90.1054 32.2333 91.1942 31.8455 91.9349 31.07C92.6807 30.2944 93.0536 29.054 93.0536 27.3487C93.0536 25.6534 92.6807 24.4205 91.9349 23.6499C91.1942 22.8793 90.1079 22.494 88.6761 22.494H86.6178V32.2333ZM101.664 35.2163C100.57 35.2163 99.6627 34.9304 98.9418 34.3587C98.221 33.7869 97.8605 32.9343 97.8605 31.8008C97.8605 30.9457 98.0619 30.2745 98.4646 29.7873C98.8673 29.3001 99.3942 28.9446 100.046 28.7209C100.702 28.4922 101.408 28.343 102.163 28.2734C103.158 28.174 103.869 28.0696 104.296 27.9602C104.724 27.8509 104.938 27.6122 104.938 27.2443V27.1996C104.938 26.7273 104.788 26.3619 104.49 26.1033C104.197 25.8448 103.779 25.7156 103.237 25.7156C102.666 25.7156 102.211 25.8398 101.873 26.0884C101.535 26.337 101.311 26.6527 101.201 27.0355L98.2632 26.7969C98.482 25.7528 99.0239 24.9251 99.8889 24.3136C100.759 23.7021 101.88 23.3963 103.252 23.3963C104.102 23.3963 104.898 23.5305 105.639 23.799C106.379 24.0675 106.976 24.4876 107.428 25.0593C107.886 25.6261 108.114 26.3643 108.114 27.2741V35H105.102V33.4116H105.012C104.734 33.9435 104.316 34.3786 103.759 34.7166C103.207 35.0497 102.509 35.2163 101.664 35.2163ZM102.574 33.0238C103.27 33.0238 103.841 32.8224 104.289 32.4197C104.736 32.0121 104.96 31.5075 104.96 30.9059V29.6903C104.836 29.7749 104.642 29.8494 104.378 29.9141C104.12 29.9787 103.841 30.0359 103.543 30.0856C103.25 30.1303 102.986 30.1701 102.753 30.2049C102.196 30.2844 101.746 30.4411 101.403 30.6747C101.065 30.9084 100.896 31.2489 100.896 31.6964C100.896 32.1339 101.052 32.4645 101.365 32.6882C101.684 32.9119 102.086 33.0238 102.574 33.0238ZM110.369 35V23.5455H113.546V35H110.369ZM111.965 22.0689C111.498 22.0689 111.095 21.9123 110.757 21.5991C110.419 21.2809 110.25 20.9006 110.25 20.4581C110.25 20.0156 110.419 19.6378 110.757 19.3246C111.095 19.0114 111.498 18.8548 111.965 18.8548C112.437 18.8548 112.842 19.0114 113.181 19.3246C113.519 19.6378 113.688 20.0156 113.688 20.4581C113.688 20.9006 113.519 21.2809 113.181 21.5991C112.842 21.9123 112.437 22.0689 111.965 22.0689ZM119.058 19.7273V35H115.881V19.7273H119.058ZM123.242 39.4595C122.789 39.4595 122.402 39.4197 122.079 39.3402C121.76 39.2656 121.512 39.1886 121.333 39.109L122.049 36.6481C122.61 36.8171 123.083 36.8619 123.466 36.7823C123.853 36.7028 124.159 36.402 124.383 35.88L124.592 35.3281L120.483 23.5455H123.824L126.195 31.9574H126.314L128.708 23.5455H132.071L127.597 36.3125C127.274 37.2273 126.757 37.9805 126.046 38.5721C125.34 39.1637 124.405 39.4595 123.242 39.4595ZM150.972 19.7273V35H148.183L141.538 25.3874H141.426V35H138.197V19.7273H141.031L147.623 29.3324H147.758V19.7273H150.972ZM160.715 30.1229V23.5455H163.892V35H160.842V32.9194H160.723C160.464 33.5906 160.034 34.13 159.433 34.5376C158.836 34.9453 158.108 35.1491 157.248 35.1491C156.094 35.1491 155.16 34.7663 154.444 34.0007C153.733 33.2301 153.375 32.1761 153.37 30.8388V23.5455H156.547V30.272C156.552 30.9482 156.733 31.4826 157.091 31.8754C157.449 32.2681 157.929 32.4645 158.53 32.4645C159.102 32.4645 159.609 32.2656 160.052 31.8679C160.499 31.4702 160.72 30.8885 160.715 30.1229ZM171.384 39.4595C169.843 39.4595 168.632 39.1563 167.752 38.5497C166.872 37.9432 166.338 37.2074 166.149 36.3423L169.087 35.9471C169.216 36.2553 169.467 36.5362 169.84 36.7898C170.218 37.0483 170.757 37.1776 171.458 37.1776C172.149 37.1776 172.719 37.0135 173.166 36.6854C173.619 36.3572 173.845 35.8178 173.845 35.0671V32.9716H173.711C173.502 33.4439 173.134 33.8739 172.607 34.2617C172.08 34.6445 171.359 34.8359 170.444 34.8359C169.584 34.8359 168.801 34.6346 168.095 34.2319C167.394 33.8292 166.835 33.2152 166.417 32.3899C166.005 31.5646 165.798 30.5181 165.798 29.2504C165.798 27.9478 166.01 26.864 166.432 25.9989C166.86 25.1339 167.424 24.4851 168.125 24.0526C168.831 23.6151 169.602 23.3963 170.437 23.3963C171.078 23.3963 171.615 23.5057 172.048 23.7244C172.48 23.9382 172.831 24.2042 173.099 24.5224C173.368 24.8406 173.571 25.1562 173.711 25.4695H173.83V23.5455H176.984V35.1119C176.984 36.0614 176.743 36.8594 176.261 37.5057C175.784 38.152 175.125 38.6392 174.285 38.9673C173.445 39.2955 172.478 39.4595 171.384 39.4595ZM171.451 32.4496C172.217 32.4496 172.808 32.1662 173.226 31.5994C173.648 31.0327 173.86 30.2447 173.86 29.2354C173.86 28.2312 173.651 27.4283 173.233 26.8267C172.816 26.2251 172.222 25.9244 171.451 25.9244C170.665 25.9244 170.066 26.2326 169.654 26.8491C169.246 27.4656 169.042 28.261 169.042 29.2354C169.042 30.2248 169.249 31.0078 169.661 31.5845C170.074 32.1612 170.67 32.4496 171.451 32.4496ZM184.463 39.4595C182.922 39.4595 181.711 39.1563 180.831 38.5497C179.951 37.9432 179.417 37.2074 179.228 36.3423L182.166 35.9471C182.295 36.2553 182.546 36.5362 182.919 36.7898C183.297 37.0483 183.836 37.1776 184.537 37.1776C185.229 37.1776 185.798 37.0135 186.245 36.6854C186.698 36.3572 186.924 35.8178 186.924 35.0671V32.9716H186.79C186.581 33.4439 186.213 33.8739 185.686 34.2617C185.159 34.6445 184.438 34.8359 183.523 34.8359C182.663 34.8359 181.88 34.6346 181.174 34.2319C180.473 33.8292 179.914 33.2152 179.496 32.3899C179.084 31.5646 178.877 30.5181 178.877 29.2504C178.877 27.9478 179.089 26.864 179.511 25.9989C179.939 25.1339 180.503 24.4851 181.204 24.0526C181.91 23.6151 182.681 23.3963 183.516 23.3963C184.157 23.3963 184.694 23.5057 185.127 23.7244C185.559 23.9382 185.91 24.2042 186.178 24.5224C186.447 24.8406 186.65 25.1562 186.79 25.4695H186.909V23.5455H190.063V35.1119C190.063 36.0614 189.822 36.8594 189.34 37.5057C188.863 38.152 188.204 38.6392 187.364 38.9673C186.524 39.2955 185.557 39.4595 184.463 39.4595ZM184.53 32.4496C185.296 32.4496 185.887 32.1662 186.305 31.5994C186.727 31.0327 186.939 30.2447 186.939 29.2354C186.939 28.2312 186.73 27.4283 186.312 26.8267C185.895 26.2251 185.301 25.9244 184.53 25.9244C183.745 25.9244 183.145 26.2326 182.733 26.8491C182.325 27.4656 182.121 28.261 182.121 29.2354C182.121 30.2248 182.328 31.0078 182.74 31.5845C183.153 32.1612 183.749 32.4496 184.53 32.4496ZM197.602 35.2237C196.428 35.2237 195.417 34.9851 194.566 34.5078C193.716 34.0256 193.063 33.3445 192.605 32.4645C192.148 31.5795 191.919 30.533 191.919 29.3249C191.919 28.1467 192.148 27.1126 192.605 26.2227C193.063 25.3327 193.706 24.6392 194.537 24.142C195.372 23.6449 196.351 23.3963 197.475 23.3963C198.484 23.3963 199.394 23.6101 200.204 24.0376C201.02 24.4652 201.666 25.1115 202.143 25.9766C202.62 26.8366 202.859 27.9155 202.859 29.2131V30.0856H195.059V30.093C195.059 30.9482 195.292 31.6218 195.76 32.114C196.227 32.6062 196.858 32.8523 197.654 32.8523C198.186 32.8523 198.646 32.7404 199.033 32.5167C199.421 32.293 199.695 31.9624 199.854 31.5249L202.792 31.7188C202.568 32.7827 202.001 33.6328 201.092 34.2692C200.182 34.9055 199.019 35.2237 197.602 35.2237ZM195.059 28.1168H199.869C199.864 27.4357 199.645 26.8739 199.212 26.4315C198.78 25.989 198.218 25.7678 197.527 25.7678C196.821 25.7678 196.242 25.9964 195.789 26.4538C195.337 26.9112 195.093 27.4656 195.059 28.1168ZM210.815 23.5455V25.9318H208.66V31.4801C208.66 31.9176 208.759 32.2134 208.958 32.3675C209.157 32.5217 209.415 32.5987 209.734 32.5987C209.883 32.5987 210.032 32.5863 210.181 32.5614C210.33 32.5316 210.445 32.5092 210.524 32.4943L211.024 34.8583C210.865 34.908 210.641 34.9652 210.353 35.0298C210.064 35.0994 209.714 35.1417 209.301 35.1566C208.148 35.2063 207.22 34.9577 206.519 34.4109C205.823 33.859 205.478 33.0213 205.483 31.8977V25.9318H203.917V23.5455H205.483V20.8011H208.66V23.5455H210.815Z" fill="#333333"/>
</svg>
