<svg width="163" height="163" viewBox="0 0 163 163" fill="none" xmlns="http://www.w3.org/2000/svg">
<path d="M92.2385 13.13H92.0864C91.6302 12.9725 90.7177 13.13 90.5656 13.6025C89.9572 15.4926 89.9572 17.3827 89.8051 19.4303C89.8051 20.2179 89.501 21.3204 90.1093 21.9504C90.4135 22.2655 91.326 22.108 91.6302 21.793C92.999 20.3754 93.151 18.0128 93.4552 16.1227C93.7594 14.5476 94.6719 11.5549 93.9115 10.1373C93.6073 9.66478 92.5427 9.97981 92.2385 10.2948C91.326 12.0274 91.0218 14.075 90.7177 15.9651C90.2614 18.1703 89.501 20.5329 89.1968 22.738C89.1968 23.5255 90.5656 23.053 90.8698 22.5805C91.4781 21.4779 91.6302 19.9028 91.9343 18.8003C92.3906 16.5951 92.6948 14.3901 93.151 12.3425C93.3031 11.7124 91.6302 12.0274 91.4781 12.4999C90.8697 14.705 90.4135 16.9102 89.9572 19.1153C89.8051 19.9028 91.4781 19.4303 91.6302 18.9578C92.2385 17.3827 92.3906 15.8076 92.5427 14.2325C92.5427 13.2875 92.8469 12.3425 92.3906 11.3974C92.2385 11.0824 91.326 11.3974 91.0218 11.5549C88.8926 12.6575 88.4363 17.8552 89.5009 19.9028C89.8051 20.5329 91.4781 19.9029 91.1739 19.4303C90.4135 18.0128 90.4135 12.9725 92.0864 12.0274C91.6302 12.0274 91.1739 12.0274 90.7177 12.1849C91.1739 12.9725 90.7177 14.8626 90.7177 15.6501C90.5656 16.9102 90.4135 18.1703 89.9572 19.2728C90.5656 19.2728 91.0218 19.1153 91.6302 19.1153C92.0864 16.9102 92.5427 14.705 93.151 12.4999C92.5427 12.4999 92.0864 12.6574 91.4781 12.6574C91.0218 14.5475 90.8697 16.5952 90.4135 18.4853C90.1093 19.7453 89.9572 21.7929 89.3489 22.738C89.9572 22.738 90.4135 22.738 91.0218 22.5805C91.1739 20.5329 91.9344 18.4853 92.3906 16.5952C92.8469 14.5475 92.999 12.1849 93.9115 10.2948C93.3031 10.2948 92.8469 10.4523 92.2385 10.4523C92.8469 11.5549 92.0864 14.075 91.9343 15.3351C91.6302 17.0677 91.4781 20.0604 90.2614 21.4779C90.7176 21.4779 91.1739 21.3204 91.7822 21.3204C91.1739 20.8479 91.6302 18.6428 91.6302 18.0127C91.7823 16.4376 91.9344 15.0201 92.3906 13.6025C91.9344 13.76 91.326 13.9175 90.8698 14.075H91.0218C91.4781 14.075 92.9989 13.2875 92.2385 13.13Z" fill="#F4DD6A"/>
<path d="M93.0022 9.35313C91.3292 9.19562 90.4167 10.9282 90.1126 12.5033C89.6563 14.2359 89.5042 16.126 89.3521 17.8586C89.3521 18.8037 89.2 20.3787 89.6563 21.1663C89.9604 21.6388 90.7209 21.3238 91.025 21.1663C93.3063 19.9062 97.5648 8.2506 93.4584 9.03814C91.7855 9.35316 91.1772 11.5583 90.7209 13.1334C89.9605 15.3385 88.8958 18.8036 89.6563 21.1663C89.8084 21.6388 90.7209 21.3238 91.025 21.1663C92.698 19.9062 92.8501 16.2835 93.3063 14.3934C93.4584 13.1333 94.2189 10.2982 92.3939 10.1407C88.7438 9.82565 88.8958 18.8037 88.7437 20.6938C88.7437 21.3238 90.4167 21.0088 90.4167 20.5362C90.7209 17.7011 90.7209 14.5509 91.7855 11.7158C92.2417 10.2982 91.9376 12.5033 91.7855 12.9759C91.7855 13.7634 91.4813 14.5509 91.3292 15.3385C91.1772 16.2835 90.873 17.2286 90.7209 18.1736C90.5688 18.8036 90.4167 20.2212 89.9605 20.5362C90.4167 20.5362 90.873 20.5362 91.3292 20.5362C90.4167 18.0161 91.7855 13.6059 93.0022 11.0857C93.0022 10.9282 93.3064 10.2982 93.4584 10.1407C93.7626 9.98316 93.4584 10.2982 93.4584 10.6132C93.6105 11.5583 93.4585 12.5033 93.1543 13.4484C92.698 15.496 91.7855 19.2762 89.9605 20.3787C90.4167 20.3787 90.873 20.3787 91.3292 20.3787C90.5688 18.9611 91.1772 16.5985 91.3292 15.0234C91.4813 14.0784 91.4813 13.1334 91.6334 12.1883C91.6334 12.0308 92.3939 9.9832 92.2418 9.9832C93.0022 10.2982 94.2189 9.35313 93.0022 9.35313Z" fill="#F4DD6A"/>
<path d="M42.3545 33.9266C42.3545 34.0841 42.3545 34.2416 42.2025 34.3991C42.8108 34.2416 43.267 34.0841 43.8754 33.9266C41.5941 31.2489 40.2253 27.9413 38.2482 24.9486C37.4878 23.8461 36.4231 21.0109 34.7502 21.1684C34.5981 21.1684 33.6856 21.4834 33.8377 21.9559C35.8148 26.9962 39.617 31.4065 41.1378 36.7617C41.7462 36.6042 42.2025 36.4467 42.8108 36.1317C41.5941 34.0841 40.6816 31.7215 39.4649 29.6739C38.2482 27.4688 36.7273 25.4211 35.5106 23.216C35.0543 23.3735 34.446 23.6885 33.9897 23.846C35.5106 26.2087 36.4232 28.7288 37.6399 31.249C38.7045 33.4541 39.9212 35.5016 40.6816 37.7068C41.2899 37.5492 41.7462 37.3917 42.3545 37.0767C40.0732 33.454 37.4878 29.9889 35.0544 26.3662C34.7502 25.8937 33.0772 26.5237 33.5335 26.9962C35.5106 30.1464 37.944 32.824 39.7691 36.1317C40.0732 36.6042 41.5941 36.1317 41.442 35.5016C40.5295 33.2965 39.617 30.9339 38.7044 28.7288C38.4003 27.9413 36.7273 25.1061 37.3357 24.3185C36.8794 24.4761 36.4231 24.6336 35.8148 24.7911C38.4003 26.5237 41.2899 30.7764 41.7462 34.0841C42.3545 33.9266 42.8108 33.7691 43.4191 33.6116C42.2024 30.3039 40.6816 26.9962 39.4649 23.6885C38.8565 23.846 38.4003 24.0035 37.7919 24.3185C39.9211 27.7837 41.5941 31.4065 43.1149 35.1867C43.4191 35.8167 45.0921 35.3441 44.7879 34.7141C43.267 30.9339 41.442 27.1537 39.3128 23.6885C39.0086 23.216 37.4878 23.6885 37.6399 24.3185C38.8566 27.6262 40.3774 30.7764 41.5941 34.2416C41.7462 34.8716 43.4191 34.3991 43.267 33.769C42.9629 30.3039 39.769 25.8937 37.0315 24.1611C36.5752 23.8461 35.8148 24.1611 35.5106 24.6336C34.7502 25.5786 35.9669 27.6262 36.4231 28.5713C37.4877 31.0914 38.5524 33.7691 39.617 36.2892C40.2253 36.1317 40.6816 35.9742 41.2899 35.6592C39.4649 32.3515 36.8794 29.6739 35.0544 26.5237C34.5981 26.6812 33.9898 26.9962 33.5335 27.1537C35.9669 30.7764 38.5523 34.0841 40.8336 37.8643C41.1378 38.3368 42.6587 37.8643 42.5066 37.2343C41.5941 34.7141 40.0732 32.3515 39.0086 29.8313C37.944 27.6262 37.0315 25.4211 35.8148 23.216C35.5106 22.7435 33.8377 23.216 34.2939 23.846C35.5106 26.0512 37.0315 28.0988 38.2482 30.3039C39.4649 32.3515 40.3774 34.7141 41.5941 36.7617C41.8983 37.2343 43.4191 36.7617 43.267 36.1317C41.7462 30.9339 37.944 26.3662 35.9669 21.3259C35.6627 21.6409 35.3585 21.7984 35.0544 22.1134C35.2065 22.1134 37.6398 26.2087 37.944 26.8387C39.4649 29.3588 40.6816 32.194 42.6587 34.3991C42.9629 34.8716 44.1796 34.3991 44.3317 33.9266C44.3317 33.7691 44.3317 33.6116 44.4838 33.4541C44.1796 33.139 42.3545 33.454 42.3545 33.9266Z" fill="#F4DD6A"/>
<path d="M10.3856 58.5684C11.9095 59.5178 13.3935 60.6079 14.7316 61.6374C16.2556 62.5867 18.4828 63.3566 19.7809 64.5268C20.0326 64.789 21.0275 64.7309 20.1641 65.4736C19.5266 65.9954 16.0155 63.4314 15.1806 62.9264C13.8425 61.897 11.9611 60.4839 11.0746 59.0127C10.5572 59.1122 10.0797 59.0709 9.56226 59.1703C11.232 60.1804 12.716 61.2705 14.1599 62.5015C15.498 63.5309 17.4337 64.1793 18.6918 65.4903C18.9176 65.2695 18.9576 65.1287 19.1834 64.9078C16.4645 64.7205 12.5844 60.586 10.3856 58.5684C10.0139 58.7286 9.49647 58.8281 8.979 58.9275C10.7546 60.1391 12.3843 61.2899 14.1599 62.5015C14.9948 63.0065 15.6839 63.4508 16.5187 63.9559C16.5187 63.9559 18.3743 64.8858 17.6052 64.7231C15.9213 64.3369 14.1599 62.5015 12.4501 61.6322C12.1585 61.5108 10.9119 61.3067 11.2294 61.9112C11.6526 62.7172 12.3017 63.3023 13.1365 63.8073C14.8721 65.1597 16.6077 66.512 18.5691 67.6435C18.6491 67.3619 18.8749 67.1411 18.9149 67.0003C18.5833 67.0196 17.7884 66.3738 17.4968 66.2524C16.2245 65.5652 14.8463 64.6766 13.614 63.8486C12.13 62.7585 10.4603 61.7485 8.8963 60.9399C8.60467 60.8185 7.17233 60.6945 7.63557 61.3597C9.1453 62.9329 11.1067 64.0644 12.8823 65.2759C13.9688 66.0432 15.0953 66.6696 16.3676 67.3568C16.7651 67.6797 18.2232 68.2868 18.5806 68.7505C18.9381 69.2142 20.5563 69.2581 20.1988 68.7944C19.3782 67.6655 17.7342 67.1385 16.5019 66.3105C14.143 64.8562 11.1609 63.2997 9.14795 61.2021C8.7763 61.3623 8.40463 61.5224 7.88716 61.6219C10.6176 62.9161 12.9623 64.9944 15.5069 66.3687C16.6334 66.9951 18.0116 67.8838 19.2981 67.947C19.6298 67.9277 20.3731 67.6073 19.644 67.3038C18.2659 66.4151 16.8877 65.5265 15.6954 64.5578C14.7547 63.8513 13.3366 63.1034 12.8476 61.9551C12.4759 62.1153 11.9584 62.2147 11.6268 62.2341C13.3366 63.1034 17.3368 66.8156 19.235 65.874C20.0183 65.4128 19.7009 64.8084 19.0519 64.2232C18.1512 63.3759 16.693 62.7689 15.5665 62.1424C13.6851 60.7294 12.0553 59.5785 10.3856 58.5684C9.98813 58.2455 8.22413 58.1409 8.87319 58.726C11.641 61.6102 15.747 65.5239 19.7525 65.7745C20.0841 65.7551 20.6016 65.6557 20.2442 65.192C19.1319 63.9416 17.6337 63.4754 16.2556 62.5867C14.48 61.3752 12.7444 60.0228 10.823 58.7505C10.5314 58.6291 8.9932 58.3036 9.31062 58.9081C10.7661 61.246 14.1315 63.7492 16.3845 65.0021C18.4917 66.1943 20.9448 66.7432 22.843 65.8016C22.883 65.6608 23.0689 65.5807 22.9231 65.52C21.9966 64.1896 20.2068 63.6019 18.7886 62.8541C16.244 61.4798 13.8194 59.6831 11.5005 58.088C11.1031 57.765 9.55069 58.0634 10.3856 58.5684Z" fill="#F4DD6A"/>
<path d="M6.772 114.563C5.96789 115.562 5.96789 115.562 5.27911 116.661C5.1786 116.786 4.72048 118.085 5.25269 117.91C6.96465 117.486 7.98461 116.462 9.33575 115.512C12.0232 113.389 14.5953 111.166 17.413 109.367C17.9303 108.967 18.3472 108.693 18.9799 108.393C19.6275 108.318 19.6423 108.543 19.1249 108.943C19.0837 109.967 16.7126 111.94 16.009 112.815C13.8834 115.213 11.3705 118.335 8.66826 120.234C8.6979 120.683 8.82806 121.008 8.8577 121.458C10.3506 119.359 12.29 117.436 14.0135 115.537C15.536 113.889 17.2448 111.765 19.1281 110.641C18.998 110.316 18.8826 110.217 18.7525 109.892C18.123 111.89 14.4272 113.564 12.8602 114.538C11.0922 115.762 9.12311 117.236 7.10961 118.035C7.03874 118.61 7.0684 119.06 6.99753 119.634C10.7049 116.487 14.0516 112.814 17.6288 109.342C17.5992 108.892 17.5695 108.443 17.5399 107.993C14.3086 111.765 9.98007 113.739 6.38799 116.986C6.18696 117.236 5.39768 118.46 6.06005 118.61C8.0175 118.61 9.75587 116.936 11.3229 115.962C14.2262 113.814 17.1707 110.641 20.4496 109.242C20.9818 109.067 21.5108 107.194 20.7776 107.619C18.3472 108.693 16.3073 110.741 14.2377 112.34C12.1682 113.939 9.22367 117.111 6.60385 116.961C6.53298 117.536 6.34678 118.01 6.27591 118.585C9.9685 115.213 14.3975 113.114 17.7293 109.217C18.0308 108.843 18.3588 107.219 17.6404 107.868C14.1636 111.216 10.8319 115.113 7.00912 118.16C6.69276 118.31 6.04844 120.084 6.89701 119.759C9.75908 118.635 12.3312 116.412 14.933 114.638C16.8015 113.289 19.1165 112.115 19.8317 109.767C19.9174 109.417 19.873 108.743 19.4561 109.017C17.6733 110.017 16.0502 111.79 14.6282 113.314C12.3873 115.612 10.0458 118.035 8.15087 120.633C7.94984 120.883 7.60707 122.282 8.34031 121.858C11.6753 119.659 14.3744 116.062 17.0025 113.039C18.5251 111.391 20.967 108.843 20.9193 106.469C20.9045 106.245 20.8897 106.02 20.6738 106.045C18.6455 106.619 16.7918 108.193 15.0238 109.417C12.3363 111.54 8.98975 115.213 5.68116 116.162C5.7108 116.611 5.74043 117.061 5.65474 117.411C6.0568 116.911 6.34353 116.312 6.8461 115.687C7.464 115.163 7.47559 113.689 6.772 114.563Z" fill="#F4DD6A"/>
<path d="M129.046 21.7932C127.221 23.3682 126.005 26.5184 125.092 28.7235C124.028 30.9286 122.659 33.2913 122.659 35.8114C122.659 35.9689 123.115 36.1264 123.115 36.1264C125.396 36.2839 126.917 33.2912 128.134 31.5586C129.959 28.881 132.697 24.3133 132.392 20.8481C132.392 20.5331 131.632 20.5331 131.48 20.6906C129.351 21.4781 128.134 24.9433 127.221 26.6759C126.309 28.4085 123.419 32.8187 123.876 34.8663C124.028 35.3389 124.788 35.0239 125.092 35.0239C127.221 34.0788 128.438 31.5587 129.351 29.3535C130.111 27.4634 132.392 23.5257 131.632 21.4781C131.48 21.0056 130.567 21.3206 130.263 21.4781C128.438 22.8957 127.374 25.1008 126.309 26.9909C125.092 29.3535 124.18 32.8187 122.355 34.8663C122.811 34.8663 123.419 34.8663 123.876 34.8663C125.092 32.9762 126.005 30.7711 126.765 28.566C127.373 26.3609 128.438 23.9983 128.286 21.6356C128.286 21.0056 126.765 21.6357 126.613 21.7932C125.396 23.6833 124.484 26.0459 123.571 28.0935C122.811 29.8261 121.594 31.5587 121.29 33.4488C121.138 34.0788 122.659 33.7638 122.811 33.4488C125.396 30.7711 126.309 26.0458 127.526 22.7382C127.678 22.1081 126.005 22.4232 125.853 22.8957C125.244 24.7858 124.332 26.5184 123.723 28.4085C123.419 29.196 123.115 29.9836 124.028 30.4561C126.005 31.2437 128.59 26.6759 129.503 25.5734C129.959 24.9433 128.286 25.1008 127.982 25.4158C126.157 27.3059 123.571 31.0861 123.419 33.9213C123.419 34.5513 124.484 34.2363 124.788 34.0788C126.613 32.9762 127.374 30.7711 128.742 29.196C129.351 28.4085 127.83 28.4085 127.374 28.881C126.157 30.2986 125.244 32.6612 123.723 33.4488C124.18 33.4488 124.636 33.6063 125.092 33.6063C125.244 31.0862 127.678 27.4635 129.351 25.5734C128.894 25.5734 128.438 25.4158 127.83 25.4158C127.221 26.2034 126.613 26.9909 126.005 27.936C125.396 28.7235 124.788 29.826 125.396 28.251C126.005 26.3609 126.765 24.6283 127.526 22.7382C126.917 22.7382 126.461 22.8957 125.853 22.8957C125.244 24.6283 124.94 26.3609 124.18 27.936C123.571 29.5111 122.659 31.8737 121.594 33.1337C122.05 33.1337 122.659 33.1337 123.115 33.1337C123.419 31.4011 125.092 28.881 125.701 27.1484C126.461 25.4158 127.221 23.3682 128.286 21.7932C127.678 21.7932 127.221 21.9506 126.613 21.9506C126.765 23.9982 125.701 26.6759 125.092 28.566C124.484 30.6136 123.571 32.6612 122.355 34.5513C121.898 35.3388 123.571 35.0238 123.876 34.5513C126.917 30.9286 127.221 24.4708 131.176 21.6356C130.719 21.6356 130.263 21.6356 129.807 21.6356C130.263 23.0532 129.046 25.7309 128.438 26.9909C127.678 29.196 126.461 32.9762 124.332 33.9213C124.788 33.9213 125.092 34.0788 125.548 34.0788C125.092 32.1887 127.526 28.7235 128.286 27.306C128.894 26.0459 129.503 24.7858 130.263 23.6832C130.567 23.2107 131.328 21.3206 131.784 21.1631C131.48 21.1631 131.176 21.0056 130.872 21.0056C131.024 23.2107 129.503 26.0459 128.59 28.0935C127.678 29.8261 126.309 32.9762 124.636 34.0788C124.18 34.7088 124.18 34.5513 124.636 33.6063C124.788 32.9763 124.94 32.5037 125.244 31.8737C125.701 30.6136 126.309 29.3536 126.917 28.0935C127.83 26.2034 128.894 23.2107 130.567 21.7932C131.024 21.4781 129.351 21.4781 129.046 21.7932Z" fill="#F4DD6A"/>
<path d="M74.2923 150.348H74.4444C74.9006 150.506 75.8131 150.348 75.9652 149.876C76.5736 147.986 76.5736 146.096 76.7256 144.048C76.7256 143.26 77.0298 142.158 76.4215 141.528C76.1173 141.213 75.2048 141.37 74.9006 141.685C73.5318 143.103 73.3798 145.466 73.0756 147.356C72.7714 148.931 71.8589 151.923 72.6193 153.341C72.9235 153.814 73.9881 153.499 74.2923 153.183C75.2048 151.451 75.5089 149.403 75.8131 147.513C76.2694 145.308 77.0298 142.945 77.334 140.74C77.334 139.953 75.9652 140.425 75.661 140.898C75.0527 142 74.9006 143.576 74.5964 144.678C74.1402 146.883 73.836 149.088 73.3797 151.136C73.2276 151.766 74.9006 151.451 75.0527 150.978C75.661 148.773 76.1173 146.568 76.5735 144.363C76.7256 143.575 75.0527 144.048 74.9006 144.521C74.2922 146.096 74.1402 147.671 73.9881 149.246C73.9881 150.191 73.6839 151.136 74.1402 152.081C74.2922 152.396 75.2048 152.081 75.509 151.923C77.6382 150.821 78.0944 145.623 77.0298 143.575C76.7257 142.945 75.0527 143.575 75.3569 144.048C76.1173 145.466 76.1173 150.506 74.4444 151.451C74.9006 151.451 75.3569 151.451 75.8131 151.293C75.3569 150.506 75.8131 148.616 75.8131 147.828C75.9652 146.568 76.1173 145.308 76.5735 144.206C75.9652 144.206 75.5089 144.363 74.9006 144.363C74.4443 146.568 73.9881 148.773 73.3797 150.978C73.9881 150.978 74.4443 150.821 75.0527 150.821C75.5089 148.931 75.661 146.883 76.1173 144.993C76.4215 143.733 76.5735 141.685 77.1819 140.74C76.5735 140.74 76.1173 140.74 75.509 140.898C75.3569 142.945 74.5964 144.993 74.1402 146.883C73.6839 148.931 73.5318 151.293 72.6193 153.183C73.2276 153.183 73.6839 153.026 74.2923 153.026C73.6839 151.923 74.4444 149.403 74.5964 148.143C74.9006 146.411 75.0527 143.418 76.2694 142C75.8131 142 75.3569 142.158 74.7485 142.158C75.3569 142.63 74.9006 144.836 74.9006 145.466C74.7485 147.041 74.5964 148.458 74.1402 149.876C74.5964 149.718 75.2048 149.561 75.661 149.403H75.509C75.0527 149.403 73.5318 150.191 74.2923 150.348Z" fill="#F4DD6A"/>
<path d="M111.901 136.246C111.901 136.089 111.901 135.931 112.053 135.773C111.444 135.931 110.988 136.089 110.38 136.246C112.661 138.924 114.03 142.231 116.007 145.224C116.767 146.327 117.832 149.162 119.505 149.004C119.657 149.004 120.57 148.689 120.418 148.217C118.44 143.176 114.638 138.766 113.117 133.411C112.509 133.568 112.053 133.726 111.444 134.041C112.661 136.089 113.574 138.451 114.79 140.499C116.007 142.704 117.528 144.751 118.745 146.957C119.201 146.799 119.809 146.484 120.266 146.327C118.745 143.964 117.832 141.444 116.615 138.924C115.551 136.719 114.334 134.671 113.574 132.466C112.965 132.623 112.509 132.781 111.901 133.096C114.182 136.719 116.767 140.184 119.201 143.806C119.505 144.279 121.178 143.649 120.722 143.176C118.745 140.026 116.311 137.349 114.486 134.041C114.182 133.568 112.661 134.041 112.813 134.671C113.726 136.876 114.638 139.239 115.551 141.444C115.855 142.231 117.528 145.066 116.92 145.854C117.376 145.697 117.832 145.539 118.44 145.381C115.855 143.649 112.965 139.396 112.509 136.089C111.901 136.246 111.444 136.403 110.836 136.561C112.053 139.869 113.574 143.176 114.79 146.484C115.399 146.327 115.855 146.169 116.463 145.854C114.334 142.389 112.661 138.766 111.14 134.986C110.836 134.356 109.163 134.828 109.467 135.458C110.988 139.239 112.813 143.019 114.942 146.484C115.247 146.957 116.767 146.484 116.615 145.854C115.399 142.546 113.878 139.396 112.661 135.931C112.509 135.301 110.836 135.773 110.988 136.404C111.292 139.869 114.486 144.279 117.224 146.012C117.68 146.327 118.44 146.012 118.745 145.539C119.505 144.594 118.288 142.546 117.832 141.601C116.768 139.081 115.703 136.404 114.638 133.883C114.03 134.041 113.574 134.198 112.965 134.513C114.79 137.821 117.376 140.499 119.201 143.649C119.657 143.491 120.265 143.176 120.722 143.019C118.288 139.396 115.703 136.089 113.422 132.308C113.117 131.836 111.597 132.308 111.749 132.938C112.661 135.458 114.182 137.821 115.247 140.341C116.311 142.546 117.224 144.751 118.44 146.957C118.745 147.429 120.418 146.957 119.961 146.327C118.745 144.121 117.224 142.074 116.007 139.869C114.79 137.821 113.878 135.458 112.661 133.411C112.357 132.938 110.836 133.411 110.988 134.041C112.509 139.239 116.311 143.806 118.288 148.847C118.593 148.532 118.897 148.374 119.201 148.059C119.049 148.059 116.615 143.964 116.311 143.334C114.79 140.814 113.574 137.979 111.597 135.773C111.292 135.301 110.076 135.773 109.924 136.246C109.924 136.404 109.924 136.561 109.771 136.719C110.076 137.034 111.901 136.719 111.901 136.246Z" fill="#F4DD6A"/>
<path d="M148.354 109.825C146.82 109.057 145.326 108.141 143.979 107.267C142.445 106.499 140.203 106.009 138.896 104.986C138.643 104.752 137.642 104.944 138.509 104.069C139.15 103.451 142.685 105.604 143.526 106.008C144.873 106.882 146.767 108.076 147.66 109.462C148.181 109.291 148.661 109.27 149.182 109.099C147.501 108.289 146.007 107.373 144.553 106.307C143.206 105.433 141.258 105.028 139.991 103.855C139.764 104.111 139.724 104.261 139.497 104.517C142.232 104.345 146.14 108.055 148.354 109.825C148.728 109.611 149.248 109.44 149.769 109.27C147.981 108.268 146.34 107.309 144.553 106.307C143.712 105.902 143.019 105.539 142.178 105.134C142.178 105.134 140.311 104.431 141.084 104.495C142.779 104.665 144.553 106.307 146.274 106.967C146.567 107.053 147.822 107.095 147.502 106.519C147.075 105.752 146.421 105.24 145.581 104.835C143.834 103.684 142.086 102.533 140.112 101.638C140.032 101.936 139.805 102.192 139.765 102.341C140.098 102.277 140.898 102.832 141.192 102.917C142.473 103.45 143.86 104.174 145.101 104.856C146.595 105.773 148.275 106.583 149.85 107.201C150.143 107.286 151.584 107.222 151.118 106.604C149.597 105.196 147.623 104.301 145.835 103.299C144.741 102.66 143.607 102.17 142.327 101.637C141.927 101.36 140.459 100.934 140.099 100.507C139.739 100.081 138.111 100.252 138.471 100.678C139.298 101.723 140.952 102.043 142.193 102.725C144.567 103.897 147.569 105.09 149.596 106.967C149.97 106.753 150.344 106.54 150.864 106.369C148.116 105.41 145.755 103.598 143.194 102.532C142.06 102.042 140.672 101.318 139.378 101.425C139.044 101.489 138.297 101.915 139.031 102.128C140.418 102.853 141.805 103.578 143.006 104.409C143.953 105.006 145.38 105.581 145.874 106.69C146.247 106.477 146.768 106.306 147.101 106.242C145.38 105.581 141.352 102.32 139.444 103.536C138.656 104.112 138.976 104.687 139.63 105.199C140.537 105.945 142.004 106.371 143.138 106.862C145.032 108.055 146.673 109.015 148.354 109.825C148.754 110.102 150.529 109.973 149.875 109.462C147.088 106.882 142.953 103.428 138.923 103.707C138.59 103.771 138.069 103.941 138.429 104.368C139.55 105.498 141.057 105.775 142.445 106.499C144.232 107.501 145.979 108.652 147.914 109.697C148.207 109.782 149.755 109.91 149.435 109.334C147.968 107.138 144.58 105.027 142.312 104.047C140.191 103.109 137.723 102.875 135.814 104.091C135.774 104.24 135.587 104.347 135.734 104.39C136.667 105.626 138.469 105.989 139.896 106.564C142.457 107.63 144.898 109.143 147.233 110.465C147.633 110.742 149.194 110.23 148.354 109.825Z" fill="#F4DD6A"/>
<path d="M155.746 62.9827C156.923 62.6234 156.923 62.6234 158.065 62.1117C158.212 62.0668 159.284 61.2505 158.773 61.0807C157.207 60.4189 155.849 60.6709 154.274 60.6632C151.013 60.8451 147.786 61.1793 144.602 61.0116C143.979 61.039 143.503 61.0215 142.845 60.8966C142.3 60.5745 142.413 60.3772 143.035 60.3498C143.632 59.516 146.565 59.2717 147.594 58.9572C150.57 58.2111 154.247 57.088 157.396 57.1034C157.621 56.7089 157.698 56.3594 157.923 55.9649C155.605 56.836 153.035 57.2951 150.648 57.8616C148.554 58.3382 146.054 59.1019 143.969 58.9244C143.891 59.2739 143.926 59.4262 143.848 59.7757C145.44 58.4751 149.238 59.2695 150.995 59.3846C153.045 59.4098 155.39 59.3451 157.397 59.8722C157.769 59.4328 157.994 59.0383 158.366 58.599C153.746 59.0329 149.118 60.1208 144.42 60.9042C144.195 61.2987 143.971 61.6931 143.746 62.0876C148.339 60.8473 152.795 61.7666 157.381 61.1804C157.675 61.0905 158.964 60.5339 158.531 60.0146C157.007 58.851 154.732 59.2202 152.976 59.1052C149.532 59.1797 145.492 60.088 142.17 59.3111C141.659 59.1413 140.215 60.3969 141.02 60.4769C143.503 61.0215 146.219 60.5175 148.711 60.4079C151.203 60.2983 155.243 59.39 157.199 61.073C157.571 60.6336 157.977 60.3466 158.349 59.9072C153.617 60.5383 149.014 59.6639 144.273 60.9492C143.832 61.0839 142.682 62.2497 143.599 62.1325C148.149 61.394 152.89 60.1088 157.544 59.8272C157.873 59.8897 159.352 58.7863 158.513 58.5541C155.666 57.7947 152.439 58.1289 149.437 58.0687C147.239 58.0884 144.79 57.6961 142.94 59.2388C142.68 59.481 142.343 60.0726 142.819 60.0902C144.757 60.3126 146.998 59.791 148.944 59.3593C151.955 58.7655 155.112 58.1267 158.019 57.076C158.313 56.9861 159.35 56.0175 158.546 55.9376C154.739 55.7973 150.656 57.2075 146.945 58.1782C144.851 58.6548 141.547 59.3385 140.276 61.3557C140.164 61.5529 140.051 61.7501 140.233 61.8575C142.128 62.5817 144.438 62.3648 146.489 62.39C149.75 62.2081 154.378 61.1201 157.476 62.2914C157.701 61.897 157.926 61.5025 158.185 61.2604C157.597 61.4401 157.044 61.772 156.308 61.9966C155.538 62.069 154.717 63.2972 155.746 62.9827Z" fill="#F4DD6A"/>
<path d="M31.9597 145.085C33.7847 143.51 35.0014 140.36 35.9139 138.155C36.9785 135.949 38.3473 133.587 38.3473 131.067C38.3473 130.909 37.8911 130.752 37.8911 130.752C35.6098 130.594 34.0889 133.587 32.8722 135.319C31.0471 137.997 28.3096 142.565 28.6138 146.03C28.6138 146.345 29.3742 146.345 29.5263 146.187C31.6555 145.4 32.8722 141.935 33.7847 140.202C34.6972 138.47 37.5869 134.059 37.1306 132.012C36.9785 131.539 36.2181 131.854 35.9139 131.854C33.7847 132.799 32.568 135.319 31.6555 137.524C30.8951 139.415 28.6138 143.352 29.3742 145.4C29.5263 145.872 30.4388 145.557 30.743 145.4C32.568 143.982 33.6326 141.777 34.6972 139.887C35.9139 137.524 36.8265 134.059 38.6515 132.012C38.1952 132.012 37.5869 132.012 37.1306 132.012C35.9139 133.902 35.0014 136.107 34.241 138.312C33.6327 140.517 32.568 142.88 32.7201 145.242C32.7201 145.872 34.241 145.242 34.393 145.085C35.6097 143.195 36.5223 140.832 37.4348 138.785C38.1952 137.052 39.4119 135.319 39.7161 133.429C39.8682 132.799 38.3473 133.114 38.1952 133.429C35.6097 136.107 34.6973 140.832 33.4806 144.14C33.3285 144.77 35.0014 144.455 35.1535 143.982C35.7618 142.092 36.6744 140.36 37.2827 138.47C37.5869 137.682 37.8911 136.894 36.9785 136.422C35.0014 135.634 32.4159 140.202 31.5034 141.305C31.0472 141.935 32.7201 141.777 33.0243 141.462C34.8493 139.572 37.4348 135.792 37.5869 132.957C37.5869 132.327 36.5223 132.642 36.2181 132.799C34.3931 133.902 33.6326 136.107 32.2638 137.682C31.6555 138.47 33.1764 138.47 33.6326 137.997C34.8493 136.579 35.7619 134.217 37.2827 133.429C36.8265 133.429 36.3702 133.272 35.9139 133.272C35.7618 135.792 33.3285 139.415 31.6555 141.305C32.1118 141.305 32.568 141.462 33.1764 141.462C33.7847 140.675 34.3931 139.887 35.0014 138.942C35.6098 138.155 36.2181 137.052 35.6098 138.627C35.0014 140.517 34.241 142.25 33.4806 144.14C34.0889 144.14 34.5451 143.982 35.1535 143.982C35.7618 142.25 36.066 140.517 36.8264 138.942C37.4348 137.367 38.3473 135.004 39.4119 133.744C38.9557 133.744 38.3473 133.744 37.8911 133.744C37.5869 135.477 35.9139 137.997 35.3056 139.73C34.5451 141.462 33.7847 143.51 32.7201 145.085C33.3285 145.085 33.7847 144.927 34.393 144.927C34.241 142.88 35.3056 140.202 35.9139 138.312C36.5223 136.264 37.4348 134.217 38.6515 132.327C39.1078 131.539 37.4348 131.854 37.1306 132.327C34.0889 135.949 33.7847 142.407 29.8305 145.242C30.2867 145.242 30.743 145.242 31.1993 145.242C30.743 143.825 31.9597 141.147 32.568 139.887C33.3285 137.682 34.5451 133.902 36.6743 132.957C36.2181 132.957 35.9139 132.799 35.4577 132.799C35.9139 134.689 33.4806 138.155 32.7201 139.572C32.1118 140.832 31.5034 142.092 30.743 143.195C30.4388 143.667 29.6784 145.557 29.2221 145.715C29.5263 145.715 29.8305 145.872 30.1346 145.872C29.9826 143.667 31.5034 140.832 32.4159 138.785C33.3285 137.052 34.6972 133.902 36.3702 132.799C36.8265 132.169 36.8265 132.327 36.3702 133.272C36.2181 133.902 36.066 134.374 35.7619 135.004C35.3056 136.264 34.6972 137.524 34.0889 138.785C33.1764 140.675 32.1118 143.667 30.4388 145.085C29.9826 145.4 31.6555 145.4 31.9597 145.085Z" fill="#F4DD6A"/>
</svg>
