<svg width="163" height="163" viewBox="0 0 163 163" fill="none" xmlns="http://www.w3.org/2000/svg">
<path d="M122.054 132.958C111.422 131.138 91.7362 133.362 77.9165 134.773C63.9982 135.816 48.9377 136.385 33.8205 140.509C32.8757 140.767 32.2271 142.124 32.2271 142.124C32.7626 147.879 51.701 146.646 62.8836 146.742C80.1298 146.757 109.306 145.877 129.895 139.473C131.784 138.958 131.291 137.125 130.247 137.017C124.142 133.175 102.566 135.915 91.581 136.552C80.5958 137.189 52.2656 137.444 40.279 141.894C37.5432 143.034 39.9263 144.351 40.1236 145.084C47.1742 148.667 63.0809 147.474 76.9005 146.064C88.7318 144.803 113.833 143.855 125.622 138.672C128.358 137.532 125.876 135.849 124.734 135.374C115.046 133.297 101.128 134.34 89.0991 134.869C74.1373 135.804 52.7591 139.276 39.2921 138.23C39.5882 139.329 39.9829 140.795 40.279 141.894C52.4064 141.733 66.226 140.322 79.9469 138.546C93.5692 136.403 108.432 135.101 122.506 130.868C126.285 129.837 121.519 127.203 120.476 127.095C108.348 127.257 93.5837 128.925 80.7089 130.077C69.8224 131.08 58.6399 130.984 47.1047 133.345C43.2267 134.009 46.1032 137.158 48.0916 137.009C65.8312 138.857 94.7682 133.322 115.399 130.84C119.277 130.175 116.302 126.66 113.369 127.067C101.636 128.695 90.6507 129.331 78.9181 130.959C73.9966 131.515 69.075 132.071 66.8326 135.043C63.3914 141.096 92.469 139.85 99.6749 140.244C103.75 140.312 101.72 136.539 99.6329 136.322C87.1108 135.018 62.7574 134.975 45.6519 139.248C41.8727 140.279 44.453 142.329 45.5952 142.804C53.3932 145.397 67.1142 143.62 77.4506 144.341C82.5695 144.518 81.5825 140.853 78.4519 140.527C69.1591 139.916 54.3946 141.583 48.6837 139.208C48.9797 140.307 48.3309 141.664 48.627 142.764C63.8428 139.006 87.1528 138.94 99.5762 139.878C99.2801 138.778 99.929 137.421 99.5342 135.955C94.4153 135.778 89.2964 135.601 83.2327 135.682C78.1139 135.505 71.1056 135.844 80.9485 134.732C92.6811 133.104 103.568 132.101 115.399 130.84C115.004 129.374 113.763 128.533 113.369 127.067C102.581 128.437 91.9902 130.539 82.0485 131.285C72.2055 132.397 57.4412 134.065 49.1918 133.562C49.4879 134.661 49.8826 136.127 50.1787 137.226C60.7691 135.124 76.9717 135.03 87.7595 133.661C98.646 132.657 111.422 131.138 121.561 131.126C121.166 129.66 119.926 128.818 119.531 127.353C107.347 131.07 90.594 132.887 78.8614 134.515C66.184 136.4 53.3093 137.552 41.1819 137.714C36.1617 137.904 39.1369 141.419 42.1688 141.379C65.8734 142.779 104.808 132.943 124.381 137.831C124.085 136.731 123.789 135.632 123.493 134.532C115.285 137.952 98.434 139.402 90.4807 139.999C76.7598 141.775 53.2946 145.031 46.2441 141.447C46.5401 142.546 45.7926 143.537 46.0887 144.636C57.1305 140.444 79.4954 140.636 88.4923 140.148C96.4456 139.552 104.399 138.955 111.506 138.983C114.538 138.942 126.369 137.681 127.61 138.523C127.413 137.79 128.16 136.799 127.963 136.067C114.834 140.042 96.8403 141.017 83.9655 142.17C72.9804 142.807 53.1959 144.664 45.4965 142.438C41.4212 142.369 42.3659 142.112 48.3309 141.664C52.2089 141 55.1421 140.593 59.1187 140.294C66.9734 139.332 74.9267 138.735 82.88 138.139C94.81 137.244 113.452 134.912 123.041 136.622C125.227 137.206 124.142 133.175 122.054 132.958Z" fill="#F4DD6A"/>
</svg>
